Patient4_TMGait_0pt2_01_right_06_EMG.mot
version=1
nRows=16
nColumns=33
inDegrees=no
endheader
time	1LAddLong	2LGlutMax	3LGlutMed	4LIliopsoas	5LSemiMemb	6LBicFemLong	7LRecFem	8LVastMed	9LVastLat	10LGasMed	11LTibAnt	12lTibPost	13LPeroneusLong	14LSol	15LExtDigLong	16LFlexDigLong	17RAddLong	18RGlutMax	19RGlutMed	20RIliopsoas	21RSemiMemb	22RBicFemLong	23RRecFem	24RVastMed	25RVastLat	26RGasMed	27RTibAnt	28RTibPost	29RPeroneusLong	30RSol	31RExtDigLong	32RFlexDigLong
14.023	0.020599	0.06546	0.016174	0.013275	0.000916	-0.30487	-0.071411	0.003662	-0.093079	-0.015259	0.01236	0.011749	0.34622	-0.16876	0.04776	-0.001373	0.009308	0.079956	-1.0649	0.010223	-0.025787	-0.046234	0.037231	-0.004578	0.015869	-0.001068	-0.42007	0.000763	0.017395	0.1857	-0.004272	-0.006866
14.024	0.014648	0.032806	0.020294	-0.008392	0.000763	-0.33951	-0.079651	0.00351	-0.032959	0.11719	0.005646	0.014191	0.80704	-0.21606	0.050507	0.005341	0.014801	0.13107	-0.45303	-0.070038	-0.034943	-0.032806	-0.001984	-0.003204	0.016022	0.004425	-0.71045	0.001068	0.040436	0.080566	0.000153	-0.002747
14.025	0.022125	-0.078888	-0.055847	0.014496	-0.010529	-0.12253	-0.003815	0.026855	-0.029755	0.14099	0.032806	0.018921	0.055237	-0.11566	0.029755	0.001678	-0.005341	0.10086	-0.27206	-0.053253	-0.03418	-0.014954	-0.019684	0.006714	0.023346	0.000916	-0.7431	-0.005493	-0.015869	0.028229	-0.003052	-0.011902
14.026	0.020294	-0.20248	-0.093231	0.010681	-0.002747	-0.072784	0.036926	0.015869	-0.070496	0.074768	0.061035	0.019531	-0.50201	-0.12329	-0.075073	-0.010223	-0.000916	0.050964	-0.029297	-0.066833	-0.025024	-0.008545	-0.037689	0.007172	0.031738	-0.003052	-0.672	0.000763	0.000763	-0.031281	-0.001678	-0.014801
14.027	0.025177	-0.27634	0.017395	0.014496	-0.007019	-0.010681	0.070038	0.010986	-0.058441	0.050201	0.00824	0.017548	-0.35812	-0.10559	-0.1297	0.006256	-0.006561	0.063629	0.47592	-0.038757	-0.024872	0.003815	-0.038605	0.00351	0.034332	-0.007172	-0.24368	0.001068	-0.021515	0.042419	-0.001831	-0.014191
14.028	0.006409	-0.3096	-0.017853	-0.000305	-0.016022	0.22461	0.028687	0.01709	-0.038147	0.13031	-0.045776	0.003815	-0.0177	-0.037231	0.039825	0.002136	-0.006866	0.003815	-0.13702	0.029602	-0.016479	0.020447	-0.087738	0.063171	0.039063	-0.010681	0.36514	-0.000305	-0.087585	0.037079	-0.003357	-0.019684
14.029	0.005646	-0.20508	-0.21896	0.022278	-0.021515	0.11841	-0.023193	0.016632	-0.002136	0.13321	-0.027161	0.001526	-0.050964	0.054626	0.16632	0.005188	-0.001526	-0.020752	-0.60928	0.063171	0.005493	0.024719	-0.099792	0.06134	0.046387	-0.011444	0.80841	0.000458	-0.16113	-0.015259	-0.00351	-0.01358
14.03	-0.009613	-0.18875	-0.35141	0.001984	-0.022888	0.023499	-0.025635	0.03067	0.024719	0.15564	-0.018768	0.059814	0.26962	-0.14236	0.12116	-0.001221	0.019226	0.067749	-0.49515	0.053711	-0.004883	0.011292	-0.1474	0.048065	0.058746	-0.007477	0.9462	0.001221	-0.14435	-0.002441	-0.000458	-0.025024
14.031	-0.00351	-0.2243	-0.32349	0.003052	-0.023499	-0.018005	-0.039978	0.029144	0.15793	0.27771	0.004578	0.031281	-0.022888	-0.20187	0.052032	-0.004883	0.02182	0.054321	-0.35461	0.01236	-0.007782	0.006409	-0.12314	0.020905	0.06073	-0.000458	0.18845	0.002136	0.020752	-0.028076	-0.002441	-0.012054
14.032	0.005951	-0.17136	-0.001373	-0.013123	-0.00946	0.058441	-0.020752	0.007782	0.28854	0.24963	-0.00824	0.019531	0.032501	-0.17822	0.042419	-0.007172	0.009308	0.051422	-0.52124	-0.028076	-0.005341	0.016022	-0.040894	0.036621	0.06073	0.005341	-0.21637	0.001373	0.10407	-0.02243	-0.007935	-0.016785
14.033	-0.01297	-0.10208	0.31799	0.002441	-0.016937	0.07309	-0.086212	-0.035095	0.29114	-0.18112	-0.007629	0.009308	0.02182	-0.32166	-0.023956	-0.015106	0.005646	0.069885	-0.30884	-0.040283	-0.011444	0.015106	-0.009155	0.007019	0.049744	-0.000153	0.13763	0.002594	0.072327	0.019989	-0.009308	-0.009918
14.034	-0.014954	-0.15549	0.20065	0.025482	-0.007019	0.10529	-0.12772	-0.009613	0.16769	-0.3952	-0.017548	0.020599	-0.032654	-0.27298	-0.012665	0.016632	0.003662	0.12283	-0.17319	-0.043182	-0.00824	0.000153	-0.007782	0.02243	0.063629	0.003204	-0.055847	0.001831	0.02655	0.04776	-0.001678	-0.008087
14.035	0.000305	-0.11337	0.066071	-0.007477	0.001373	0.11429	-0.17136	-0.016632	0.026398	-0.22064	-0.002289	0.024261	0.12756	-0.10407	0.054321	0.032806	-0.016632	0.080109	-0.56122	0.11978	0.005188	-0.010834	-0.013885	-0.003967	0.055695	-0.004272	-0.11047	0.004578	-0.051117	0.18509	-0.007629	-0.005188
14.036	0.02533	-0.097656	0.011139	-0.029907	0.009155	0.27786	-0.23178	-0.002594	-0.039673	-0.021057	0.001068	0.026703	0.17181	-0.065613	0.039673	0.012207	-0.024414	0.095825	-0.63675	0.092926	0.005035	0.014801	-0.019684	0.021057	0.046539	-0.000153	0.12344	0.003204	0.027618	0.11292	-0.003052	0.005951
14.037	0.040894	-0.086517	-0.28809	-0.001526	0.016174	0.17471	-0.18921	-0.002747	-0.051117	-0.033875	0.007324	0.022583	-0.078125	-0.072327	-0.028992	0.007477	-0.032654	0.099487	-0.63477	0.008392	0.006409	0.015717	0.012665	-0.011139	0.043793	0.00061	0.35736	-0.002136	-0.018158	0.066223	-0.001373	-0.001221
14.038	0.033417	-0.0354	-0.28076	-0.001526	0.020599	-0.15839	-0.16571	0	-0.19531	-0.061951	0.026245	0.021973	-0.054626	-0.087433	-0.022888	0.00473	-0.022888	0.096283	-0.31021	-0.007324	-0.003052	0.018005	0.063934	-0.080109	0.024109	-0.000458	0.41519	0.00824	-0.098877	-0.042114	-0.00351	-0.000305
